<svg width="198" height="36" viewBox="0 0 198 36" fill="none" xmlns="http://www.w3.org/2000/svg">
    <g clip-path="url(#clip0_3_32)">
        <path d="M11 2C8.08369 2.00344 5.28779 3.16347 3.22564 5.22563C1.16348 7.28778 0.00345217 10.0837 1.17029e-05 13C-0.00348119 15.3832 0.774992 17.7018 2.21601 19.6C2.21601 19.6 2.51601 19.995 2.56501 20.052L11 30L19.439 20.047C19.483 19.994 19.784 19.6 19.784 19.6L19.785 19.597C21.2253 17.6996 22.0034 15.3821 22 13C21.9966 10.0837 20.8365 7.28778 18.7744 5.22563C16.7122 3.16347 13.9163 2.00344 11 2ZM15.21 13.702L11.003 18L6.79001 13.702C6.28415 13.1797 6.0013 12.4811 6.0013 11.754C6.0013 11.0269 6.28415 10.3283 6.79001 9.806C7.03807 9.55103 7.33473 9.34836 7.66244 9.20997C7.99015 9.07158 8.34228 9.00028 8.69801 9.00028C9.05375 9.00028 9.40587 9.07158 9.73358 9.20997C10.0613 9.34836 10.3579 9.55103 10.606 9.806L11.003 10.211L11.396 9.806C11.6441 9.55103 11.9407 9.34836 12.2684 9.20997C12.5962 9.07158 12.9483 9.00028 13.304 9.00028C13.6597 9.00028 14.0119 9.07158 14.3396 9.20997C14.6673 9.34836 14.9639 9.55103 15.212 9.806C15.7179 10.3283 16.0007 11.0269 16.0007 11.754C16.0007 12.4811 15.7179 13.1797 15.212 13.702H15.21Z" fill="#0D47A1"/>
    </g>
    <path d="M48.1406 1.20312H50.3643V14H48.1406V4.88574L42.5244 14H40.3008V1.20312H42.5244V10.3262L48.1406 1.20312Z" fill="#0D47A1"/>
    <path d="M63.5475 14H61.3327V8.31348H55.611V14H53.3873V1.20312H55.611V6.5293H61.3327V1.20312H63.5475V14Z" fill="#0D47A1"/>
    <path d="M74.3841 1.20312H76.6077V14H74.3841V4.88574L68.7679 14H66.5442V1.20312H68.7679V10.3262L74.3841 1.20312Z" fill="#0D47A1"/>
    <path d="M79.6132 1.20312H81.8368V12.2246H87.4706V1.20312H89.6943V12.207H91.2411L91.0654 17.085H89.0263V14H79.6132V1.20312Z" fill="#0D47A1"/>
    <path d="M101.278 1.20312H103.502V14H101.278V4.88574L95.6617 14H93.438V1.20312H95.6617V10.3262L101.278 1.20312Z" fill="#0D47A1"/>
    <path d="M113.846 11.0205H108.889L107.852 14H105.54L110.374 1.20312H112.369L117.212 14H114.892L113.846 11.0205ZM109.513 9.22754H113.222L111.367 3.91895L109.513 9.22754Z" fill="#0D47A1"/>
    <path d="M127.223 2.99609H123.232V14H121.026V2.99609H117.071V1.20312H127.223V2.99609Z" fill="#0D47A1"/>
    <path d="M137.11 1.20312H139.333V14H137.11V4.88574L131.494 14H129.27V1.20312H131.494V10.3262L137.11 1.20312Z" fill="#0D47A1"/>
    <path d="M142.357 14V1.20312H146.742C148.19 1.20312 149.291 1.49316 150.047 2.07324C150.803 2.65332 151.181 3.51758 151.181 4.66602C151.181 5.25195 151.023 5.7793 150.706 6.24805C150.39 6.7168 149.927 7.08008 149.317 7.33789C150.009 7.52539 150.542 7.87988 150.917 8.40137C151.298 8.91699 151.488 9.53809 151.488 10.2646C151.488 11.4658 151.102 12.3887 150.328 13.0332C149.561 13.6777 148.459 14 147.024 14H142.357ZM144.58 8.22559V12.2246H147.05C147.747 12.2246 148.292 12.0518 148.685 11.7061C149.077 11.3604 149.274 10.8799 149.274 10.2646C149.274 8.93457 148.594 8.25488 147.234 8.22559H144.58ZM144.58 6.59082H146.76C147.451 6.59082 147.99 6.43555 148.377 6.125C148.77 5.80859 148.966 5.36328 148.966 4.78906C148.966 4.15625 148.784 3.69922 148.421 3.41797C148.064 3.13672 147.504 2.99609 146.742 2.99609H144.58V6.59082Z" fill="#0D47A1"/>
    <path d="M156.357 6.09863H158.976C159.914 6.09863 160.731 6.25977 161.428 6.58203C162.126 6.9043 162.656 7.36133 163.019 7.95312C163.383 8.54492 163.564 9.23047 163.564 10.0098C163.564 11.2051 163.157 12.166 162.343 12.8926C161.534 13.6191 160.429 13.9883 159.029 14H154.134V1.20312H156.357V6.09863ZM167.045 14H164.83V1.20312H167.045V14ZM156.357 7.88281V12.2246H158.968C159.718 12.2246 160.301 12.0225 160.717 11.6182C161.138 11.208 161.349 10.666 161.349 9.99219C161.349 9.34766 161.144 8.83789 160.734 8.46289C160.324 8.08789 159.756 7.89453 159.029 7.88281H156.357Z" fill="#0D47A1"/>
    <path d="M50.2412 26.4805H48.8086V32H46.5938V26.4805H45.0996L41.9619 32H39.1934L43.3154 25.1885L39.4658 19.2031H42.1553L45.2139 24.5469H46.5938V19.2031H48.8086V24.5469H50.127L53.1592 19.2031H55.8398L52.0254 25.1709L56.1123 32H53.3525L50.2412 26.4805Z" fill="#0D47A1"/>
    <path d="M65.6745 19.2031H67.8981V32H65.6745V22.8857L60.0582 32H57.8346V19.2031H60.0582V28.3262L65.6745 19.2031Z" fill="#0D47A1"/>
    <path d="M79.9036 20.9961H75.9134V32H73.7073V20.9961H69.7522V19.2031H79.9036V20.9961Z" fill="#0D47A1"/>
    <path d="M89.4306 26.2871H84.1747V30.2246H90.3183V32H81.9511V19.2031H90.2568V20.9961H84.1747V24.5293H89.4306V26.2871Z" fill="#0D47A1"/>
    <path d="M102.552 19.2031V32H100.337V20.9961H96.4175L96.189 25.9443C96.1011 27.4912 95.9107 28.6924 95.6177 29.5479C95.3306 30.3975 94.9117 31.0186 94.3609 31.4111C93.8101 31.8037 93.0718 32 92.1461 32H91.5836V30.2246L91.9351 30.1982C92.4449 30.1514 92.8375 29.9727 93.1129 29.6621C93.3941 29.3516 93.605 28.8828 93.7457 28.2559C93.8921 27.623 93.9947 26.6943 94.0533 25.4697L94.2994 19.2031H102.552Z" fill="#0D47A1"/>
    <path d="M113.072 26.2871H107.817V30.2246H113.96V32H105.593V19.2031H113.899V20.9961H107.817V24.5293H113.072V26.2871Z" fill="#0D47A1"/>
    <path d="M123.971 19.2031H126.194V32H123.971V22.8857L118.354 32H116.131V19.2031H118.354V28.3262L123.971 19.2031ZM124.041 15.9424C124.041 16.6807 123.783 17.2783 123.267 17.7354C122.752 18.1924 122.063 18.4209 121.202 18.4209C120.341 18.4209 119.652 18.1924 119.137 17.7354C118.621 17.2783 118.363 16.6807 118.363 15.9424H119.963C119.963 16.3291 120.071 16.6309 120.288 16.8477C120.511 17.0586 120.815 17.1641 121.202 17.1641C121.589 17.1641 121.89 17.0586 122.107 16.8477C122.324 16.6309 122.432 16.3291 122.432 15.9424H124.041Z" fill="#0D47A1"/>
    <path d="M145.828 35.1465H143.719V32H135.29V35.1465H133.146L133.075 30.2246H134.104C134.613 29.7324 135.021 29.0176 135.325 28.0801C135.63 27.1367 135.826 26.0703 135.914 24.8809L136.248 19.2031H144.317V30.2246H145.942L145.828 35.1465ZM136.617 30.2246H142.102V20.9961H138.366L138.155 24.5996C137.997 27.0078 137.484 28.8828 136.617 30.2246Z" fill="#0D47A1"/>
    <path d="M152.578 25.8916L155.144 19.2031H157.614L153.158 29.8203L152.754 30.6201C152.168 31.6631 151.219 32.1846 149.906 32.1846L148.992 32.1318L149.01 30.374C149.15 30.3975 149.399 30.4092 149.757 30.4092C150.389 30.4092 150.835 30.1396 151.093 29.6006L151.55 28.5195L147.173 19.2031H149.598L152.578 25.8916Z" fill="#0D47A1"/>
    <path d="M167.756 20.9961H161.859V24.0986H164.478C165.415 24.0986 166.233 24.2598 166.93 24.582C167.627 24.9043 168.158 25.3613 168.521 25.9531C168.884 26.5449 169.066 27.2305 169.066 28.0098C169.066 29.2051 168.659 30.166 167.844 30.8926C167.036 31.6191 165.931 31.9883 164.531 32H159.635V19.2031H167.756V20.9961ZM161.859 25.8828V30.2246H164.469C165.219 30.2246 165.802 30.0225 166.218 29.6182C166.64 29.208 166.851 28.666 166.851 27.9922C166.851 27.3477 166.646 26.8379 166.236 26.4629C165.826 26.0879 165.257 25.8945 164.531 25.8828H161.859Z" fill="#0D47A1"/>
    <path d="M181.511 32H179.296V26.3135H173.574V32H171.351V19.2031H173.574V24.5293H179.296V19.2031H181.511V32Z" fill="#0D47A1"/>
    <path d="M186.793 24.0986H189.412C190.349 24.0986 191.167 24.2598 191.864 24.582C192.561 24.9043 193.091 25.3613 193.455 25.9531C193.818 26.5449 194 27.2305 194 28.0098C194 29.2051 193.592 30.166 192.778 30.8926C191.969 31.6191 190.865 31.9883 189.465 32H184.569V19.2031H186.793V24.0986ZM197.48 32H195.265V19.2031H197.48V32ZM186.793 25.8828V30.2246H189.403C190.153 30.2246 190.736 30.0225 191.152 29.6182C191.574 29.208 191.785 28.666 191.785 27.9922C191.785 27.3477 191.58 26.8379 191.17 26.4629C190.759 26.0879 190.191 25.8945 189.465 25.8828H186.793Z" fill="#0D47A1"/>
    <line x1="31.75" y1="-3.27835e-08" x2="31.75" y2="32" stroke="#0D47A1" stroke-width="1.5"/>
    <defs>
        <clipPath id="clip0_3_32">
            <rect width="22" height="32" fill="white"/>
        </clipPath>
    </defs>
</svg>
